<svg viewBox="0 0 26 22" fill="none" xmlns="http://www.w3.org/2000/svg">
<path d="M25.3899 6.53451L21.0623 2.29741C20.0546 1.31072 18.7229 0.767341 17.3126 0.767341H16.942C16.9033 0.735622 16.8609 0.707305 16.8149 0.68309L15.6818 0.0865818C15.315 -0.106584 14.8612 0.0343503 14.6681 0.401071C14.6065 0.518091 14.5793 0.643917 14.5821 0.767391H11.0332C11.0361 0.643967 11.0088 0.518091 10.9472 0.401071C10.7542 0.0343003 10.3003 -0.106534 9.93358 0.0865818L8.80045 0.68309C8.75447 0.707305 8.71205 0.735622 8.67338 0.767341H8.3028C6.89246 0.767341 5.5607 1.31072 4.55305 2.29741L0.225449 6.53451C-0.0632246 6.81713 -0.0763325 7.2775 0.195681 7.57608L3.02543 10.6825C3.28879 10.9716 3.73 11.01 4.03939 10.7708L5.79635 9.41174L5.9744 21.2609C5.98056 21.6709 6.31471 22 6.72475 22H18.8908C19.3008 22 19.635 21.6709 19.6411 21.2609L19.8192 9.41174L21.5761 10.7708C21.8855 11.01 22.3267 10.9717 22.5901 10.6825L25.4198 7.57608C25.6918 7.2775 25.6786 6.81713 25.3899 6.53451ZM21.9467 9.15993L19.5504 7.30647C19.3255 7.13247 19.0217 7.1006 18.7657 7.22392C18.5096 7.3472 18.3451 7.6046 18.3409 7.88882L18.1514 20.4991H7.46395L7.27448 7.88882C7.27023 7.6046 7.10578 7.3472 6.84968 7.22392C6.59368 7.1006 6.28984 7.13257 6.06496 7.30647L3.66867 9.15998L1.79269 7.10055L5.60303 3.36985C6.32857 2.65948 7.28734 2.26824 8.30275 2.26824H17.3126C18.328 2.26824 19.2868 2.65948 20.0123 3.36985L23.8226 7.1005L21.9467 9.15993Z" fill="#2BBB3A"/>
</svg>
