<svg width="20" height="20" viewBox="0 0 20 20" fill="none" xmlns="http://www.w3.org/2000/svg">
<path d="M10 1C5.04448 1 1 5.04475 1 10C1 11.7214 1.48532 13.3826 2.40639 14.8226L1.03708 18.2783C0.959351 18.4747 1.00618 18.6984 1.15601 18.847C1.30638 18.9962 1.53064 19.0404 1.72565 18.9613L5.17947 17.5601C6.64876 18.503 8.30948 19 10 19C14.9557 19 19 14.9552 19 10C19 5.04448 14.9552 1 10 1ZM10 17.9453C8.43074 17.9453 6.88757 17.4566 5.53694 16.5318C5.39082 16.4317 5.20433 16.4119 5.04077 16.4782L2.47189 17.5204L3.48827 14.9552C3.55281 14.7922 3.53207 14.6078 3.43306 14.4631C2.53136 13.1461 2.05469 11.6028 2.05469 10C2.05469 5.61893 5.61893 2.05469 10 2.05469C14.3811 2.05469 17.9453 5.61893 17.9453 10C17.9453 14.3811 14.3811 17.9453 10 17.9453Z" fill="#C4C4C4" stroke="#DADADA" stroke-width="0.75"/>
</svg>
