<svg width="18" height="26" viewBox="0 0 18 26" fill="none" xmlns="http://www.w3.org/2000/svg">
<path d="M16 16.6835V10.9471C16 8.01855 14.1744 5.50647 11.5966 4.47785C11.8526 4.03856 12 3.52905 12 2.98558C12 1.33936 10.6541 0 8.99998 0C7.34581 0 5.99998 1.33936 5.99998 2.98558C5.99998 3.52905 6.14738 4.03856 6.40337 4.47785C3.82551 5.50647 1.99999 8.01855 1.99999 10.9471V16.6835L0.105725 20.4541C-0.0494828 20.7625 -0.0328161 21.1289 0.149215 21.4223C0.331506 21.7157 0.65338 21.8942 0.999994 21.8942H4.99999C4.99999 24.0894 6.79451 25.875 8.99998 25.875C11.2057 25.875 13 24.0894 13 21.8942H17C17.3466 21.8942 17.6685 21.7157 17.8507 21.4223C18.0328 21.1289 18.0494 20.7625 17.8945 20.4541L16 16.6835ZM7.99998 2.98558C7.99998 2.43693 8.44868 1.99038 8.99998 1.99038C9.55128 1.99038 9.99998 2.43693 9.99998 2.98558C9.99998 3.53423 9.55128 3.98077 8.99998 3.98077C8.44868 3.98077 7.99998 3.53423 7.99998 2.98558ZM8.99998 5.97115C11.757 5.97115 14 8.20334 14 10.9471V15.9231H3.99999V10.9471C3.99999 8.20334 6.24295 5.97115 8.99998 5.97115ZM8.99998 23.8846C7.89712 23.8846 6.99998 22.991 6.99998 21.8935H11C11 22.991 10.1028 23.8846 8.99998 23.8846ZM2.61796 19.9038L3.61796 17.9135H14.382L15.382 19.9038H2.61796Z" fill="#C4C4C4"/>
</svg>
