<svg width="13" height="13" viewBox="0 0 13 13" fill="none" xmlns="http://www.w3.org/2000/svg">
<path d="M9.16667 0H3.83333C1.9924 0 0.5 1.45496 0.5 3.2497V7.14934C0.5 8.71899 1.64716 10.0316 3.16667 10.3337V12.3488C3.16667 12.9278 3.88476 13.2178 4.30476 12.8083L6.77604 10.399H9.16667C11.0076 10.399 12.5 8.94408 12.5 7.14934V3.2497C12.5 1.45496 11.0076 0 9.16667 0ZM8.97133 3.70921L6.30467 6.30897C6.04436 6.56275 5.62227 6.56275 5.36196 6.30897L4.02862 5.00909C3.76822 4.75522 3.76822 4.34389 4.02862 4.09003C4.28902 3.83616 4.71093 3.83616 4.97133 4.09003L5.83333 4.9304L8.02867 2.79015C8.28907 2.53628 8.71098 2.53628 8.97138 2.79015C9.23178 3.04402 9.23178 3.45534 8.97133 3.70921Z" fill="white"/>
</svg>
