<svg viewBox="0 0 18 18" fill="none" xmlns="http://www.w3.org/2000/svg">
<path d="M16.0808 12.4639C16.0781 12.4639 16.0754 12.4639 16.0727 12.4639L14.8672 12.4633C13.7609 12.4712 12.6985 11.9491 12.0278 11.0716L11.7198 10.6659C11.8278 10.4374 11.8742 10.1755 11.8395 9.90651L11.4319 6.73827C12.0873 6.98524 12.6742 7.40385 13.1171 7.94724L13.6147 8.55752C13.7965 8.78044 14.0617 8.89605 14.3291 8.89605C14.5327 8.89605 14.7376 8.82897 14.908 8.69126C15.3023 8.37251 15.3624 7.79592 15.0424 7.40331L14.5448 6.79284C13.7487 5.81607 12.6343 5.11411 11.407 4.81635L9.75042 4.4144C9.74656 4.41348 9.7427 4.41306 9.73884 4.4122C9.7213 4.40817 9.70365 4.40512 9.68594 4.40213C9.6727 4.39987 9.6594 4.39743 9.64616 4.39578C9.632 4.39401 9.61784 4.39316 9.60368 4.39206C9.58707 4.39078 9.57046 4.38931 9.55391 4.38888C9.54331 4.38864 9.5327 4.38913 9.5221 4.38925C9.50255 4.38943 9.48305 4.38968 9.46368 4.39108C9.45474 4.39175 9.44591 4.39316 9.43696 4.39407C9.41655 4.39621 9.39614 4.39835 9.37597 4.40183C9.36574 4.4036 9.35568 4.40622 9.34551 4.4083C9.32718 4.41214 9.30879 4.4158 9.29077 4.42069C9.27741 4.42429 9.26436 4.42899 9.25118 4.4332C9.23665 4.43784 9.222 4.44217 9.20778 4.44754C9.19252 4.45328 9.17762 4.46012 9.16261 4.46671C9.15065 4.47196 9.13852 4.47684 9.12681 4.48258C9.11216 4.48978 9.09794 4.49803 9.08366 4.50602C9.07177 4.51267 9.05975 4.51902 9.04817 4.52616C9.03591 4.53373 9.02408 4.54222 9.01213 4.55046C8.99877 4.55962 8.98534 4.56871 8.97247 4.57854C8.96297 4.5858 8.95384 4.59374 8.94458 4.60143C8.92981 4.61364 8.91528 4.62603 8.90131 4.63915C8.89867 4.64165 8.89573 4.64373 8.89316 4.64629L8.24944 5.26713C7.38966 6.09649 6.21446 6.49344 5.02547 6.35603C4.5212 6.29817 4.06474 6.65776 4.0062 7.16006C3.94773 7.66236 4.30912 8.11681 4.81358 8.1751C5.03994 8.20123 5.26599 8.21417 5.49076 8.21417C6.64438 8.21417 7.76258 7.87264 8.71516 7.23642L9.09837 10.2137L8.7702 10.4549C6.84236 11.8715 5.53464 13.9427 5.08793 16.2865L5.06372 16.4132C4.9689 16.91 5.29652 17.3893 5.79533 17.4837C5.85332 17.4947 5.91112 17.5 5.968 17.5C6.40086 17.5 6.78646 17.1941 6.87025 16.7552L6.89453 16.6282C7.25451 14.7391 8.3084 13.0701 9.86204 11.9284L10.1911 11.6866L10.5647 12.1753C11.5755 13.4979 13.17 14.2838 14.8377 14.2838C14.8528 14.2838 14.8678 14.2838 14.883 14.2836L16.0885 14.2733C16.5963 14.269 17.0043 13.8664 17 13.3608C16.9956 12.8578 16.5849 12.4639 16.0808 12.4639ZM8.43381 4.14405C9.44425 4.14405 10.2635 3.32831 10.2635 2.322C10.2635 1.31568 9.44425 0.5 8.43381 0.5C7.42337 0.5 6.60417 1.31574 6.60417 2.32206C6.60417 3.32837 7.42331 4.14405 8.43381 4.14405Z" fill="white"/>
<circle cx="2" cy="12.5" r="2" fill="white"/>
</svg>
