<svg width="12" height="14" viewBox="0 0 12 14" fill="none" xmlns="http://www.w3.org/2000/svg">
<path d="M8.66667 0.5H3.33333C1.4924 0.5 0 1.95496 0 3.7497V7.64934C0 9.21899 1.14716 10.5316 2.66667 10.8337V12.8488C2.66667 13.4278 3.38476 13.7178 3.80476 13.3083L6.27604 10.899H8.66667C10.5076 10.899 12 9.44408 12 7.64934V3.7497C12 1.95496 10.5076 0.5 8.66667 0.5ZM8.47133 4.20921L5.80467 6.80897C5.54436 7.06275 5.12227 7.06275 4.86196 6.80897L3.52862 5.50909C3.26822 5.25522 3.26822 4.84389 3.52862 4.59003C3.78902 4.33616 4.21093 4.33616 4.47133 4.59003L5.33333 5.4304L7.52867 3.29015C7.78907 3.03628 8.21098 3.03628 8.47138 3.29015C8.73178 3.54402 8.73178 3.95534 8.47133 4.20921Z" fill="#0E72CF"/>
</svg>
