<svg viewBox="0 0 15 11" fill="none" xmlns="http://www.w3.org/2000/svg">
<path d="M14.516 0.5H9.6757C9.40815 0.5 9.19166 0.72364 9.19166 1.00001V1.99999C9.19166 2.27637 9.40815 2.50001 9.6757 2.50001H11.5942L6.37044 8.15426L2.18469 3.46767C1.98698 3.282 1.6805 3.29634 1.49998 3.49964L0.661705 4.26792C0.481192 4.47131 0.495078 4.78673 0.692789 4.97245L5.71392 10.2386C5.89897 10.413 6.13325 10.4996 6.36758 10.4996C6.60042 10.4996 6.8333 10.4139 7.01789 10.2415L13.0639 3.82136V6.00006C13.0639 6.27643 13.2804 6.50007 13.5479 6.50007H14.516C14.7835 6.50007 15 6.27643 15 6.00006V1.00001C15 0.72364 14.7835 0.5 14.516 0.5Z" fill="white"/>
</svg>
