<svg width="75" height="41" viewBox="0 0 75 41" fill="none" xmlns="http://www.w3.org/2000/svg">
<path fill-rule="evenodd" d="M30.6029 38.5H31.6868V31.4541H30.6224L27.0335 36.7715H26.9603V31.4541H25.8763V38.5H26.9407L30.5296 33.1973H30.6029V38.5ZM36.5148 34.1982V33.3633H33.1115V38.5H34.1613V34.1982H36.5148ZM40.2393 33.2803C39.4971 33.2803 38.9062 33.6562 38.6035 34.2471H38.584V33.3633H37.5635V40.1992H38.6182V37.6553H38.6426C38.9355 38.2266 39.5215 38.5879 40.2588 38.5879C41.5479 38.5879 42.4023 37.5576 42.4023 35.9316C42.4023 34.3057 41.543 33.2803 40.2393 33.2803ZM39.9609 37.6943C39.1504 37.6943 38.6133 37.001 38.6133 35.9316C38.6133 34.8721 39.1553 34.1689 39.9609 34.1689C40.7959 34.1689 41.3184 34.8574 41.3184 35.9316C41.3184 37.0107 40.7959 37.6943 39.9609 37.6943ZM48.0457 38.5H49.0907V33.3633H48.0457V38.5ZM45.409 35.7754C46.0096 35.7754 46.4051 36.1514 46.4051 36.7227C46.4051 37.2891 46.0145 37.6699 45.409 37.6699H44.5204V35.7754H45.409ZM43.4705 38.5H45.5018C46.6883 38.5 47.4549 37.8115 47.4549 36.7227C47.4549 35.6387 46.6883 34.9502 45.5018 34.9502H44.5204V33.3633H43.4705V38.5Z" fill="#DADADA"/>
<path fill-rule="evenodd" clip-rule="evenodd" d="M37 24.5C30.3726 24.5 25 19.1274 25 12.5C25 5.87258 30.3726 0.5 37 0.5C43.6274 0.5 49 5.87258 49 12.5C49 19.1274 43.6274 24.5 37 24.5Z" fill="#DADADA"/>
<path d="M44.0808 15.4639C44.0781 15.4639 44.0754 15.4639 44.0727 15.4639L42.8672 15.4633C41.7609 15.4712 40.6985 14.9491 40.0278 14.0716L39.7198 13.6659C39.8278 13.4374 39.8742 13.1755 39.8395 12.9065L39.4319 9.73827C40.0873 9.98524 40.6742 10.4039 41.1171 10.9472L41.6147 11.5575C41.7965 11.7804 42.0617 11.896 42.3291 11.896C42.5327 11.896 42.7376 11.829 42.908 11.6913C43.3023 11.3725 43.3624 10.7959 43.0424 10.4033L42.5448 9.79284C41.7487 8.81607 40.6343 8.11411 39.407 7.81635L37.7504 7.4144C37.7466 7.41348 37.7427 7.41306 37.7388 7.4122C37.7213 7.40817 37.7037 7.40512 37.6859 7.40213C37.6727 7.39987 37.6594 7.39743 37.6462 7.39578C37.632 7.39401 37.6178 7.39316 37.6037 7.39206C37.5871 7.39078 37.5705 7.38931 37.5539 7.38888C37.5433 7.38864 37.5327 7.38913 37.5221 7.38925C37.5025 7.38943 37.4831 7.38968 37.4637 7.39108C37.4547 7.39175 37.4459 7.39316 37.437 7.39407C37.4165 7.39621 37.3961 7.39835 37.376 7.40183C37.3657 7.4036 37.3557 7.40622 37.3455 7.4083C37.3272 7.41214 37.3088 7.4158 37.2908 7.42069C37.2774 7.42429 37.2644 7.42899 37.2512 7.4332C37.2366 7.43784 37.222 7.44217 37.2078 7.44754C37.1925 7.45328 37.1776 7.46012 37.1626 7.46671C37.1507 7.47196 37.1385 7.47684 37.1268 7.48258C37.1122 7.48978 37.0979 7.49803 37.0837 7.50602C37.0718 7.51267 37.0598 7.51902 37.0482 7.52616C37.0359 7.53373 37.0241 7.54222 37.0121 7.55046C36.9988 7.55962 36.9853 7.56871 36.9725 7.57854C36.963 7.5858 36.9538 7.59374 36.9446 7.60143C36.9298 7.61364 36.9153 7.62603 36.9013 7.63915C36.8987 7.64165 36.8957 7.64373 36.8932 7.64629L36.2494 8.26713C35.3897 9.09649 34.2145 9.49344 33.0255 9.35603C32.5212 9.29817 32.0647 9.65776 32.0062 10.1601C31.9477 10.6624 32.3091 11.1168 32.8136 11.1751C33.0399 11.2012 33.266 11.2142 33.4908 11.2142C34.6444 11.2142 35.7626 10.8726 36.7152 10.2364L37.0984 13.2137L36.7702 13.4549C34.8424 14.8715 33.5346 16.9427 33.0879 19.2865L33.0637 19.4132C32.9689 19.91 33.2965 20.3893 33.7953 20.4837C33.8533 20.4947 33.9111 20.5 33.968 20.5C34.4009 20.5 34.7865 20.1941 34.8703 19.7552L34.8945 19.6282C35.2545 17.7391 36.3084 16.0701 37.862 14.9284L38.1911 14.6866L38.5647 15.1753C39.5755 16.4979 41.17 17.2838 42.8377 17.2838C42.8528 17.2838 42.8678 17.2838 42.883 17.2836L44.0885 17.2733C44.5963 17.269 45.0043 16.8664 45 16.3608C44.9956 15.8578 44.5849 15.4639 44.0808 15.4639ZM36.4338 7.14405C37.4443 7.14405 38.2635 6.32831 38.2635 5.322C38.2635 4.31568 37.4443 3.5 36.4338 3.5C35.4234 3.5 34.6042 4.31574 34.6042 5.32206C34.6042 6.32837 35.4233 7.14405 36.4338 7.14405Z" fill="white"/>
<circle cx="30" cy="15.5" r="2" fill="white"/>
</svg>
