<svg width="75" height="43" viewBox="0 0 75 43" fill="none" xmlns="http://www.w3.org/2000/svg">
<path fill-rule="evenodd" d="M29.1898 40.5V33.4541H23.477V40.5H24.5756V34.4062H28.101V40.5H29.1898ZM32.8264 40.5977C34.2961 40.5977 35.2629 39.5869 35.2629 37.9316C35.2629 36.2812 34.2913 35.2705 32.8264 35.2705C31.3616 35.2705 30.3899 36.2812 30.3899 37.9316C30.3899 39.5869 31.3567 40.5977 32.8264 40.5977ZM32.8264 39.7285C32.0012 39.7285 31.4641 39.0742 31.4641 37.9316C31.4641 36.7939 32.0012 36.1396 32.8264 36.1396C33.6516 36.1396 34.1887 36.7939 34.1887 37.9316C34.1887 39.0742 33.6565 39.7285 32.8264 39.7285ZM37.3712 40.5L39.7442 36.8916H39.7833V40.5H40.8233V35.3633H39.7833L37.4102 38.9619H37.3712V35.3633H36.3311V40.5H37.3712ZM46.5009 37.0088C46.3544 36.0615 45.5634 35.2705 44.2939 35.2705C42.8339 35.2705 41.8866 36.3203 41.8866 37.9316C41.8866 39.5771 42.8339 40.5977 44.3036 40.5977C45.5146 40.5977 46.3593 39.8945 46.5107 38.8643H45.495C45.3486 39.4014 44.9384 39.7139 44.3134 39.7139C43.4931 39.7139 42.956 39.0449 42.956 37.9316C42.956 36.8477 43.4882 36.1494 44.3036 36.1494C44.9579 36.1494 45.3486 36.5352 45.4853 37.0088H46.5009ZM49.6052 37.7754L51.8806 35.3633H50.6209L48.6091 37.5605H48.5701V35.3633H47.5203V40.5H48.5701V38.1318H48.6091L50.6453 40.5H51.9685L49.6052 37.7754Z" fill="#DADADA"/>
<path fill-rule="evenodd" clip-rule="evenodd" d="M37 26.5C29.8203 26.5 24 20.6797 24 13.5C24 6.3203 29.8203 0.5 37 0.5C44.1797 0.5 50 6.3203 50 13.5C50 20.6797 44.1797 26.5 37 26.5Z" fill="#DADADA"/>
<path clip-rule="evenodd" d="M42.5621 18.7715L39.6558 15.8651C40.4221 14.978 40.8863 13.8182 40.8863 12.5489C40.8863 9.76046 38.6462 7.5 35.8829 7.5C33.1197 7.5 30.8796 9.76046 30.8796 12.5489C30.8796 15.3373 33.1197 17.5978 35.8829 17.5978C36.9273 17.5978 37.8969 17.2749 38.6991 16.7227L41.655 19.6786C41.9055 19.9291 42.3116 19.9291 42.5621 19.6786C42.8126 19.4281 42.8126 19.022 42.5621 18.7715ZM39.6034 12.5489C39.6034 14.6224 37.9377 16.3032 35.8829 16.3032C33.8282 16.3032 32.1625 14.6224 32.1625 12.5489C32.1625 10.4755 33.8282 8.79462 35.8829 8.79462C37.9377 8.79462 39.6034 10.4755 39.6034 12.5489Z" fill="white"/>
<path d="M39.6558 15.8651L39.4666 15.7017L39.3147 15.8775L39.479 16.0419L39.6558 15.8651ZM42.5621 18.7715L42.7389 18.5947V18.5947L42.5621 18.7715ZM38.6991 16.7227L38.8758 16.5459L38.7287 16.3988L38.5573 16.5168L38.6991 16.7227ZM41.655 19.6786L41.4782 19.8554L41.655 19.6786ZM42.5621 19.6786L42.7389 19.8554H42.7389L42.5621 19.6786ZM39.479 16.0419L42.3853 18.9482L42.7389 18.5947L39.8325 15.6883L39.479 16.0419ZM40.6363 12.5489C40.6363 13.7561 40.195 14.8585 39.4666 15.7017L39.8449 16.0285C40.6492 15.0976 41.1363 13.8802 41.1363 12.5489H40.6363ZM35.8829 7.75C38.506 7.75 40.6363 9.89639 40.6363 12.5489H41.1363C41.1363 9.62454 38.7864 7.25 35.8829 7.25V7.75ZM31.1296 12.5489C31.1296 9.89639 33.2599 7.75 35.8829 7.75V7.25C32.9795 7.25 30.6296 9.62454 30.6296 12.5489H31.1296ZM35.8829 17.3478C33.2599 17.3478 31.1296 15.2014 31.1296 12.5489H30.6296C30.6296 15.4732 32.9795 17.8478 35.8829 17.8478V17.3478ZM38.5573 16.5168C37.7954 17.0413 36.8749 17.3478 35.8829 17.3478V17.8478C36.9796 17.8478 37.9984 17.5085 38.8408 16.9286L38.5573 16.5168ZM41.8317 19.5018L38.8758 16.5459L38.5223 16.8995L41.4782 19.8554L41.8317 19.5018ZM42.3853 19.5018C42.2325 19.6547 41.9846 19.6547 41.8317 19.5018L41.4782 19.8554C41.8263 20.2035 42.3908 20.2035 42.7389 19.8554L42.3853 19.5018ZM42.3853 18.9482C42.5382 19.1011 42.5382 19.349 42.3853 19.5018L42.7389 19.8554C43.087 19.5073 43.087 18.9428 42.7389 18.5947L42.3853 18.9482ZM35.8829 16.5532C38.0779 16.5532 39.8534 14.7583 39.8534 12.5489H39.3534C39.3534 14.4864 37.7975 16.0532 35.8829 16.0532V16.5532ZM31.9125 12.5489C31.9125 14.7583 33.688 16.5532 35.8829 16.5532V16.0532C33.9684 16.0532 32.4125 14.4864 32.4125 12.5489H31.9125ZM35.8829 8.54462C33.688 8.54462 31.9125 10.3395 31.9125 12.5489H32.4125C32.4125 10.6114 33.9684 9.04462 35.8829 9.04462V8.54462ZM39.8534 12.5489C39.8534 10.3395 38.0779 8.54462 35.8829 8.54462V9.04462C37.7975 9.04462 39.3534 10.6114 39.3534 12.5489H39.8534Z" fill="white"/>
</svg>
