<svg width="75" height="41" viewBox="0 0 75 41" fill="none" xmlns="http://www.w3.org/2000/svg">
<path fill-rule="evenodd" d="M22.6138 38.5V31.4541H16.9009V38.5H17.9996V32.4062H21.525V38.5H22.6138ZM26.7191 33.2803C25.977 33.2803 25.3861 33.6562 25.0834 34.2471H25.0639V33.3633H24.0434V40.1992H25.098V37.6553H25.1225C25.4154 38.2266 26.0014 38.5879 26.7387 38.5879C28.0277 38.5879 28.8822 37.5576 28.8822 35.9316C28.8822 34.3057 28.0229 33.2803 26.7191 33.2803ZM26.4408 37.6943C25.6303 37.6943 25.0932 37.001 25.0932 35.9316C25.0932 34.8721 25.6352 34.1689 26.4408 34.1689C27.2758 34.1689 27.7982 34.8574 27.7982 35.9316C27.7982 37.0107 27.2758 37.6943 26.4408 37.6943ZM32.1623 38.5977C33.6321 38.5977 34.5989 37.5869 34.5989 35.9316C34.5989 34.2812 33.6272 33.2705 32.1623 33.2705C30.6975 33.2705 29.7258 34.2812 29.7258 35.9316C29.7258 37.5869 30.6926 38.5977 32.1623 38.5977ZM32.1623 37.7285C31.3371 37.7285 30.8 37.0742 30.8 35.9316C30.8 34.7939 31.3371 34.1396 32.1623 34.1396C32.9875 34.1396 33.5246 34.7939 33.5246 35.9316C33.5246 37.0742 32.9924 37.7285 32.1623 37.7285ZM38.1475 37.7188C37.1417 37.6895 36.5069 37.0254 36.5069 35.9316C36.5069 34.8428 37.1466 34.1689 38.1475 34.1445V37.7188ZM40.8038 35.9316C40.8038 37.0254 40.1593 37.6943 39.1632 37.7188V34.1445C40.1641 34.1738 40.8038 34.8379 40.8038 35.9316ZM38.1427 38.5684V40.1992H39.168V38.5684C40.7891 38.5391 41.8682 37.5234 41.8682 35.9316C41.8682 34.335 40.794 33.3291 39.168 33.2998V31.6982H38.1427V33.2998C36.5118 33.3242 35.4376 34.3398 35.4376 35.9316C35.4376 37.5332 36.5069 38.5342 38.1427 38.5684ZM43.9765 38.5L46.3495 34.8916H46.3886V38.5H47.4286V33.3633H46.3886L44.0155 36.9619H43.9765V33.3633H42.9364V38.5H43.9765ZM50.2742 36.1611L50.4158 34.1982H51.9978V38.5H53.0476V33.3633H49.488L49.3123 36.1172C49.2537 37.0107 49.0779 37.6064 48.5798 37.6064C48.448 37.6064 48.3503 37.582 48.3015 37.5674V38.4951C48.365 38.5195 48.4871 38.5488 48.658 38.5488C49.8103 38.5488 50.1765 37.6162 50.2742 36.1611ZM56.2789 35.7754C56.8795 35.7754 57.275 36.1514 57.275 36.7227C57.275 37.2891 56.8844 37.6699 56.2789 37.6699H55.3902V35.7754H56.2789ZM54.3404 38.5H56.3717C57.5582 38.5 58.3248 37.8115 58.3248 36.7227C58.3248 35.6387 57.5582 34.9502 56.3717 34.9502H55.3902V33.3633H54.3404V38.5Z" fill="#DADADA"/>
<path fill-rule="evenodd" clip-rule="evenodd" d="M26 12.5C26 19.1274 31.3726 24.5 38 24.5C44.6274 24.5 50 19.1274 50 12.5C50 5.87258 44.6274 0.5 38 0.5C31.3726 0.5 26 5.87258 26 12.5ZM44.8768 10.0643L42.5115 7.75313C41.9608 7.21494 41.2329 6.91855 40.4621 6.91855H40.2596C40.2384 6.90125 40.2153 6.8858 40.1901 6.87259L39.5708 6.54723C39.3703 6.44186 39.1224 6.51874 39.0168 6.71877C38.9831 6.7826 38.9682 6.85123 38.9698 6.91858H37.0302C37.0317 6.85125 37.0168 6.7826 36.9832 6.71877C36.8777 6.51871 36.6296 6.44189 36.4292 6.54723L35.8099 6.87259C35.7847 6.8858 35.7615 6.90125 35.7404 6.91855H35.5379C34.767 6.91855 34.0392 7.21494 33.4885 7.75313L31.1232 10.0643C30.9654 10.2184 30.9583 10.4695 31.1069 10.6324L32.6535 12.3268C32.7975 12.4845 33.0386 12.5055 33.2077 12.375L34.168 11.6337L34.2653 18.0968C34.2687 18.3205 34.4513 18.5 34.6754 18.5H41.3247C41.5488 18.5 41.7314 18.3205 41.7348 18.0968L41.8321 11.6337L42.7923 12.375C42.9614 12.5055 43.2026 12.4845 43.3465 12.3268L44.8931 10.6324C45.0417 10.4695 45.0345 10.2184 44.8768 10.0643Z" fill="#DADADA"/>
</svg>
