<svg width="75" height="43" viewBox="0 0 75 43" fill="none" xmlns="http://www.w3.org/2000/svg">
<path fill-rule="evenodd" d="M13.6941 40.6318C15.2761 40.6318 16.365 39.8115 16.6677 38.415H15.5691C15.32 39.2012 14.6413 39.6602 13.6989 39.6602C12.405 39.6602 11.5847 38.6201 11.5847 36.9746C11.5847 35.3438 12.4148 34.2939 13.6941 34.2939C14.6071 34.2939 15.3396 34.8359 15.5691 35.6709H16.6677C16.4333 34.2646 15.2468 33.3223 13.6941 33.3223C11.7263 33.3223 10.4665 34.7432 10.4665 36.9746C10.4665 39.2207 11.7165 40.6318 13.6941 40.6318ZM20.0015 40.5977C21.4713 40.5977 22.438 39.5869 22.438 37.9316C22.438 36.2812 21.4664 35.2705 20.0015 35.2705C18.5367 35.2705 17.565 36.2812 17.565 37.9316C17.565 39.5869 18.5318 40.5977 20.0015 40.5977ZM20.0015 39.7285C19.1763 39.7285 18.6392 39.0742 18.6392 37.9316C18.6392 36.7939 19.1763 36.1396 20.0015 36.1396C20.8267 36.1396 21.3638 36.7939 21.3638 37.9316C21.3638 39.0742 20.8316 39.7285 20.0015 39.7285ZM25.7182 40.5977C27.1879 40.5977 28.1547 39.5869 28.1547 37.9316C28.1547 36.2812 27.183 35.2705 25.7182 35.2705C24.2533 35.2705 23.2816 36.2812 23.2816 37.9316C23.2816 39.5869 24.2484 40.5977 25.7182 40.5977ZM25.7182 39.7285C24.893 39.7285 24.3559 39.0742 24.3559 37.9316C24.3559 36.7939 24.893 36.1396 25.7182 36.1396C26.5434 36.1396 27.0805 36.7939 27.0805 37.9316C27.0805 39.0742 26.5482 39.7285 25.7182 39.7285ZM31.5129 40.5977C33.0266 40.5977 33.9592 39.6064 33.9592 37.9902C33.9592 36.4766 33.0705 35.5098 31.6838 35.5098C30.8782 35.5098 30.258 35.8418 29.9309 36.4473H29.8918C30.0823 34.9971 30.5168 34.3818 31.8889 34.333L32.3381 34.3184C32.968 34.2939 33.4905 34.167 33.6223 34.0449V33.1709C33.3879 33.2979 32.8313 33.4004 32.2795 33.4248L31.8205 33.4395C29.8674 33.5078 29.0373 34.665 29.0373 37.5166C29.0373 39.5479 29.9065 40.5977 31.5129 40.5977ZM31.5032 39.7139C30.6243 39.7139 30.1164 39.0986 30.1164 38.0049C30.1164 36.9648 30.6291 36.3691 31.5032 36.3691C32.3723 36.3691 32.8801 36.9648 32.8801 38.0049C32.8801 39.0986 32.3723 39.7139 31.5032 39.7139ZM42.4102 41.8477V39.665H41.6241V35.3633H40.5743V39.665H38.8507V35.3633H37.8009V39.665H36.0772V35.3633H35.0274V40.5H41.4386V41.8477H42.4102ZM45.4462 36.1201C46.1835 36.1201 46.6816 36.6719 46.706 37.458H44.1376C44.1913 36.6816 44.7089 36.1201 45.4462 36.1201ZM46.7011 38.9912C46.5595 39.4404 46.1152 39.7432 45.5146 39.7432C44.6698 39.7432 44.1327 39.1523 44.1327 38.2588V38.1953H47.7607V37.834C47.7607 36.2764 46.872 35.2705 45.4462 35.2705C43.996 35.2705 43.0683 36.3447 43.0683 37.9561C43.0683 39.5771 43.9814 40.5977 45.4902 40.5977C46.6669 40.5977 47.5556 39.9287 47.7021 38.9912H46.7011ZM52.198 40.5H53.2478V35.3633H52.198V37.4336H49.8738V35.3633H48.824V40.5H49.8738V38.2637H52.198V40.5ZM55.5904 40.5L57.9635 36.8916H58.0025V40.5H59.0426V35.3633H58.0025L55.6295 38.9619H55.5904V35.3633H54.5504V40.5H55.5904ZM62.2836 37.9268C61.6879 37.9268 61.2973 37.5801 61.2973 37.0918C61.2973 36.5352 61.683 36.1934 62.2836 36.1934H63.2162V37.9268H62.2836ZM63.2162 40.5H64.2514V35.3633H62.2299C61.0287 35.3633 60.2475 36.0273 60.2475 37.0967C60.2475 37.8145 60.687 38.3467 61.3998 38.5566L59.9985 40.5H61.1899L62.435 38.7373H63.2162V40.5Z" fill="#DADADA"/>
<path fill-rule="evenodd" clip-rule="evenodd" d="M37 26.5C44.1797 26.5 50 20.6797 50 13.5C50 6.3203 44.1797 0.5 37 0.5C29.8203 0.5 24 6.3203 24 13.5C24 20.6797 29.8203 26.5 37 26.5Z" fill="#DADADA"/>
<path d="M37.3333 8.5H42.6667C44.5076 8.5 46 9.95496 46 11.7497V15.6493C46 17.219 44.8528 18.5316 43.3333 18.8337V20.8488C43.3333 21.4278 42.6152 21.7178 42.1952 21.3083L39.724 18.899H37.3333C35.4924 18.899 34 17.4441 34 15.6493V11.7497C34 9.95496 35.4924 8.5 37.3333 8.5Z" fill="white"/>
<path fill-rule="evenodd" clip-rule="evenodd" d="M37.1667 4.5H31.8333C29.2001 4.5 27 6.59083 27 9.2497V13.1493C27 15.0236 28.0994 16.6181 29.6667 17.3939V18.3488C29.6667 20.3333 32.038 21.1633 33.3519 19.8824L35.3862 17.899H37.1667C39.7999 17.899 42 15.8082 42 13.1493V9.2497C42 6.59083 39.7999 4.5 37.1667 4.5Z" fill="#DADADA"/>
<path d="M37.1667 6H31.8333C29.9924 6 28.5 7.45496 28.5 9.2497V13.1493C28.5 14.719 29.6472 16.0316 31.1667 16.3337V18.3488C31.1667 18.9278 31.8848 19.2178 32.3048 18.8083L34.776 16.399H37.1667C39.0076 16.399 40.5 14.9441 40.5 13.1493V9.2497C40.5 7.45496 39.0076 6 37.1667 6ZM36.9713 9.70921L34.3047 12.309C34.0444 12.5627 33.6223 12.5627 33.362 12.309L32.0286 11.0091C31.7682 10.7552 31.7682 10.3439 32.0286 10.09C32.289 9.83616 32.7109 9.83616 32.9713 10.09L33.8333 10.9304L36.0287 8.79015C36.2891 8.53628 36.711 8.53628 36.9714 8.79015C37.2318 9.04402 37.2318 9.45534 36.9713 9.70921Z" fill="white"/>
</svg>
