<svg width="75" height="41" viewBox="0 0 75 41" fill="none" xmlns="http://www.w3.org/2000/svg">
<path fill-rule="evenodd" d="M19.1324 31.4541V38.5H20.2261V36.0928H21.7398C23.1216 36.0928 24.0933 35.1455 24.0933 33.7686C24.0933 32.3965 23.1412 31.4541 21.774 31.4541H19.1324ZM20.2261 32.377H21.4859C22.4332 32.377 22.9752 32.8848 22.9752 33.7734C22.9752 34.6621 22.4332 35.1748 21.481 35.1748H20.2261V32.377ZM27.1732 34.1201C27.9105 34.1201 28.4086 34.6719 28.433 35.458H25.8646C25.9184 34.6816 26.4359 34.1201 27.1732 34.1201ZM28.4281 36.9912C28.2865 37.4404 27.8422 37.7432 27.2416 37.7432C26.3969 37.7432 25.8598 37.1523 25.8598 36.2588V36.1953H29.4877V35.834C29.4877 34.2764 28.599 33.2705 27.1732 33.2705C25.723 33.2705 24.7953 34.3447 24.7953 35.9561C24.7953 37.5771 25.7084 38.5977 27.2172 38.5977C28.3939 38.5977 29.2826 37.9287 29.4291 36.9912H28.4281ZM31.5911 38.5L33.9641 34.8916H34.0032V38.5H35.0432V33.3633H34.0032L31.6301 36.9619H31.5911V33.3633H30.551V38.5H31.5911ZM31.2493 31.1074C31.2493 32.0303 31.9036 32.6553 32.8704 32.6553C33.842 32.6553 34.4963 32.0303 34.4963 31.1074H33.7834C33.7786 31.6592 33.427 32.0791 32.8704 32.0791C32.3186 32.0791 31.967 31.6592 31.9621 31.1074H31.2493ZM40.2423 33.3633H35.9698V34.1982H37.5811V38.5H38.6309V34.1982H40.2423V33.3633ZM42.2138 38.5L44.5868 34.8916H44.6259V38.5H45.6659V33.3633H44.6259L42.2529 36.9619H42.2138V33.3633H41.1738V38.5H42.2138ZM50.3328 38.5H51.3826V33.3633H50.3328V35.4336H48.0086V33.3633H46.9587V38.5H48.0086V36.2637H50.3328V38.5ZM56.0885 34.1982V33.3633H52.6852V38.5H53.735V34.1982H56.0885Z" fill="#DADADA"/>
<path fill-rule="evenodd" clip-rule="evenodd" d="M38 24.5C31.3726 24.5 26 19.1274 26 12.5C26 5.87258 31.3726 0.5 38 0.5C44.6274 0.5 50 5.87258 50 12.5C50 19.1274 44.6274 24.5 38 24.5Z" fill="#DADADA"/>
<path d="M44.516 7.5H39.6757C39.4082 7.5 39.1917 7.72364 39.1917 8.00001V8.99999C39.1917 9.27637 39.4082 9.50001 39.6757 9.50001H41.5942L36.3704 15.1543L32.1847 10.4677C31.987 10.282 31.6805 10.2963 31.5 10.4996L30.6617 11.2679C30.4812 11.4713 30.4951 11.7867 30.6928 11.9724L35.7139 17.2386C35.899 17.413 36.1333 17.4996 36.3676 17.4996C36.6004 17.4996 36.8333 17.4139 37.0179 17.2415L43.0639 10.8214V13.0001C43.0639 13.2764 43.2804 13.5001 43.5479 13.5001H44.516C44.7835 13.5001 45 13.2764 45 13.0001V8.00001C45 7.72364 44.7835 7.5 44.516 7.5Z" fill="white"/>
</svg>
